<svg width="18" height="18" viewBox="0 0 18 18" fill="none" xmlns="http://www.w3.org/2000/svg">
<path d="M8.88496 14.9517L3.04405 9.1108C2.57814 8.64489 2.26754 8.10322 2.11223 7.4858C1.96072 6.86837 1.96261 6.25473 2.11792 5.64489C2.27322 5.03125 2.58193 4.49716 3.04405 4.04261C3.51754 3.5767 4.05731 3.26799 4.66337 3.11648C5.27322 2.96117 5.88117 2.96117 6.48723 3.11648C7.09708 3.27178 7.63875 3.58049 8.11223 4.04261L8.88496 4.79261L9.65769 4.04261C10.135 3.58049 10.6766 3.27178 11.2827 3.11648C11.8887 2.96117 12.4948 2.96117 13.1009 3.11648C13.7107 3.26799 14.2524 3.5767 14.7259 4.04261C15.188 4.49716 15.4967 5.03125 15.652 5.64489C15.8073 6.25473 15.8073 6.86837 15.652 7.4858C15.5005 8.10322 15.1918 8.64489 14.7259 9.1108L8.88496 14.9517Z" fill="black"/>
</svg>
